<svg width="1440" height="27" viewBox="0 0 1440 27" fill="none" xmlns="http://www.w3.org/2000/svg">
<g opacity="0.25">
<path d="M0 7.20703C34.2864 7.20703 34.2863 19.8485 68.5727 19.8485C102.859 19.8485 102.859 7.20703 137.132 7.20703C171.405 7.20703 171.418 19.8485 205.705 19.8485C239.991 19.8485 239.991 7.20703 274.277 7.20703C308.564 7.20703 308.564 19.8485 342.837 19.8485C377.11 19.8485 377.123 7.20703 411.409 7.20703C445.696 7.20703 445.696 19.8485 479.982 19.8485C514.268 19.8485 514.268 7.20703 548.555 7.20703C582.841 7.20703 582.828 19.8485 617.114 19.8485C651.4 19.8485 651.4 7.20703 685.687 7.20703C719.973 7.20703 719.973 19.8485 754.246 19.8485C788.519 19.8485 788.532 7.20703 822.819 7.20703C857.105 7.20703 857.105 19.8485 891.405 19.8485C925.705 19.8485 925.678 7.20703 959.964 7.20703C994.251 7.20703 994.264 19.8485 1028.55 19.8485C1062.84 19.8485 1062.84 7.20703 1097.11 7.20703C1131.38 7.20703 1131.4 19.8485 1165.68 19.8485C1199.97 19.8485 1199.97 7.20703 1234.27 7.20703C1268.57 7.20703 1268.55 19.8485 1302.84 19.8485C1337.13 19.8485 1337.13 7.20703 1371.41 7.20703C1405.7 7.20703 1405.71 19.8485 1440 19.8485" fill="black"/>
<path d="M0 7.20703C34.2864 7.20703 34.2863 19.8485 68.5727 19.8485C102.859 19.8485 102.859 7.20703 137.132 7.20703C171.405 7.20703 171.418 19.8485 205.705 19.8485C239.991 19.8485 239.991 7.20703 274.277 7.20703C308.564 7.20703 308.564 19.8485 342.837 19.8485C377.11 19.8485 377.123 7.20703 411.409 7.20703C445.696 7.20703 445.696 19.8485 479.982 19.8485C514.268 19.8485 514.268 7.20703 548.555 7.20703C582.841 7.20703 582.828 19.8485 617.114 19.8485C651.4 19.8485 651.4 7.20703 685.687 7.20703C719.973 7.20703 719.973 19.8485 754.246 19.8485C788.519 19.8485 788.532 7.20703 822.819 7.20703C857.105 7.20703 857.105 19.8485 891.405 19.8485C925.705 19.8485 925.678 7.20703 959.964 7.20703C994.251 7.20703 994.264 19.8485 1028.55 19.8485C1062.84 19.8485 1062.84 7.20703 1097.11 7.20703C1131.38 7.20703 1131.4 19.8485 1165.68 19.8485C1199.97 19.8485 1199.97 7.20703 1234.27 7.20703C1268.57 7.20703 1268.55 19.8485 1302.84 19.8485C1337.13 19.8485 1337.13 7.20703 1371.41 7.20703C1405.7 7.20703 1405.71 19.8485 1440 19.8485" stroke="black" stroke-width="13" stroke-miterlimit="10"/>
</g>
</svg>
