<svg xmlns="http://www.w3.org/2000/svg" width="1440" height="12,6" viewBox="0 0 1440 27">
    <g opacity=".2">
        <path fill="#000"
              d="M0 7.207c34.286 0 34.286 12.642 68.573 12.642 34.286 0 34.286-12.642 68.559-12.642 34.273 0 34.286 12.642 68.573 12.642 34.286 0 34.286-12.642 68.572-12.642 34.287 0 34.287 12.642 68.56 12.642s34.286-12.642 68.572-12.642c34.287 0 34.287 12.642 68.573 12.642 34.286 0 34.286-12.642 68.573-12.642 34.286 0 34.273 12.642 68.559 12.642 34.286 0 34.286-12.642 68.573-12.642 34.286 0 34.286 12.642 68.559 12.642 34.273 0 34.286-12.642 68.573-12.642 34.286 0 34.286 12.642 68.586 12.642s34.273-12.642 68.559-12.642c34.287 0 34.3 12.642 68.586 12.642 34.29 0 34.29-12.642 68.56-12.642s34.29 12.642 68.57 12.642c34.29 0 34.29-12.642 68.59-12.642 34.3 0 34.28 12.642 68.57 12.642 34.29 0 34.29-12.642 68.57-12.642 34.29 0 34.3 12.642 68.59 12.642"/>
        <path stroke="#000" stroke-miterlimit="10" stroke-width="6"
              d="M0 7.207c34.286 0 34.286 12.642 68.573 12.642 34.286 0 34.286-12.642 68.559-12.642 34.273 0 34.286 12.642 68.573 12.642 34.286 0 34.286-12.642 68.572-12.642 34.287 0 34.287 12.642 68.56 12.642s34.286-12.642 68.572-12.642c34.287 0 34.287 12.642 68.573 12.642 34.286 0 34.286-12.642 68.573-12.642 34.286 0 34.273 12.642 68.559 12.642 34.286 0 34.286-12.642 68.573-12.642 34.286 0 34.286 12.642 68.559 12.642 34.273 0 34.286-12.642 68.573-12.642 34.286 0 34.286 12.642 68.586 12.642s34.273-12.642 68.559-12.642c34.287 0 34.3 12.642 68.586 12.642 34.29 0 34.29-12.642 68.56-12.642s34.29 12.642 68.57 12.642c34.29 0 34.29-12.642 68.59-12.642 34.3 0 34.28 12.642 68.57 12.642 34.29 0 34.29-12.642 68.57-12.642 34.29 0 34.3 12.642 68.59 12.642"/>
    </g>
</svg>
